<svg width="30" height="11" viewBox="0 0 30 11" fill="none" xmlns="http://www.w3.org/2000/svg">
<rect width="30" height="11" fill="#E5E5E5"/>
<g id="Desktop" clip-path="url(#clip0_0_1)">
<rect width="1440" height="6096" transform="translate(-764 -5515)" fill="white"/>
<g id="Frame">
<path id="Rectangle" d="M-764 -261H676V121H-764V-261Z" fill="#E5F3FE"/>
<g id="Frame_2">
<g id="Frame_3">
<g id="Rectangle_2">
<path d="M-149 -21C-149 -23.2091 -147.209 -25 -145 -25H57C59.2091 -25 61 -23.2091 61 -21V32C61 34.2091 59.2091 36 57 36H-145C-147.209 36 -149 34.2091 -149 32V-21Z" fill="#F46752"/>
<path d="M-148.5 -21C-148.5 -22.933 -146.933 -24.5 -145 -24.5H57C58.933 -24.5 60.5 -22.933 60.5 -21V32C60.5 33.933 58.933 35.5 57 35.5H-145C-146.933 35.5 -148.5 33.933 -148.5 32V-21Z" stroke="#1D253C" stroke-opacity="0.2"/>
</g>
</g>
</g>
</g>
<path id="Shape" d="M29.8485 6.69238C29.7405 6.07982 29.7459 5.25293 29.4913 4.66623C29.3271 4.3065 28.9028 4.18697 28.6169 3.99446C28.1677 3.73357 27.7102 3.42555 27.2611 3.16466C25.5704 2.15097 23.8798 1.13727 22.1892 0.12358C22.3607 0.239085 22.3803 1.20734 22.4135 1.39582C22.4468 1.5843 22.4663 2.55255 22.6379 2.66806C23.4873 3.19847 24.3774 3.67313 25.2268 4.20354C16.889 4.36193 8.50229 4.52893 0.172774 4.73444C0.270527 4.71721 0.466496 7.25766 0.613126 7.2318C8.19288 7.06133 15.8215 6.88223 23.4584 6.75026C22.5058 7.06399 21.521 7.48057 20.6505 7.97416C20.5122 8.04713 20.7345 8.73669 20.8914 9.34063C20.9579 9.71759 21.0244 10.0946 21.0908 10.4715C21.2292 10.3985 21.4164 10.3169 21.5547 10.244C21.5547 10.244 21.6036 10.2354 21.5952 10.1882C23.0679 9.39413 24.7048 8.95975 26.3416 8.52537C27.2537 8.26738 28.174 8.05652 29.0694 7.70429C29.5905 7.51525 29.8265 7.42504 29.8661 7.07796C29.8745 7.12508 29.9233 7.11646 29.9316 7.16358C29.915 7.06934 29.8984 6.9751 29.8818 6.88086C29.8735 6.83374 29.8569 6.7395 29.8485 6.69238ZM27.5382 5.59363C27.4893 5.60225 27.4893 5.60225 27.4404 5.61087C27.4321 5.56375 27.4238 5.51663 27.4238 5.51663C27.4238 5.51663 27.481 5.55513 27.5382 5.59363Z" fill="white"/>
</g>
<defs>
<clipPath id="clip0_0_1">
<rect width="1440" height="6096" fill="white" transform="translate(-764 -5515)"/>
</clipPath>
</defs>
</svg>
